<mxfile host="app.diagrams.net" modified="2024-03-31T08:18:45.249Z" agent="Mozilla/5.0 (X11; Linux x86_64) AppleWebKit/537.36 (KHTML, like Gecko) Chrome/121.0.0.0 Safari/537.36" etag="_ELed4mrZ3UfASxiU3NF" version="24.2.1" type="github">
  <diagram id="C5RBs43oDa-KdzZeNtuy" name="Page-1">
    <mxGraphModel dx="941" dy="547" grid="1" gridSize="10" guides="1" tooltips="1" connect="1" arrows="1" fold="1" page="1" pageScale="1" pageWidth="827" pageHeight="1169" math="0" shadow="0">
      <root>
        <mxCell id="WIyWlLk6GJQsqaUBKTNV-0" />
        <mxCell id="WIyWlLk6GJQsqaUBKTNV-1" parent="WIyWlLk6GJQsqaUBKTNV-0" />
        <mxCell id="eqOZPifA_z1N_L8KUlT--0" value="" style="rounded=1;whiteSpace=wrap;html=1;" vertex="1" parent="WIyWlLk6GJQsqaUBKTNV-1">
          <mxGeometry x="55" y="70" width="350" height="470" as="geometry" />
        </mxCell>
        <mxCell id="eqOZPifA_z1N_L8KUlT--25" style="edgeStyle=orthogonalEdgeStyle;rounded=0;orthogonalLoop=1;jettySize=auto;html=1;entryX=0.5;entryY=1;entryDx=0;entryDy=0;" edge="1" parent="WIyWlLk6GJQsqaUBKTNV-1" source="eqOZPifA_z1N_L8KUlT--2" target="eqOZPifA_z1N_L8KUlT--6">
          <mxGeometry relative="1" as="geometry" />
        </mxCell>
        <mxCell id="eqOZPifA_z1N_L8KUlT--2" value="Intra-modal&lt;div&gt;Multi-Head Attention&lt;/div&gt;" style="rounded=1;whiteSpace=wrap;html=1;" vertex="1" parent="WIyWlLk6GJQsqaUBKTNV-1">
          <mxGeometry x="90" y="443" width="134" height="67" as="geometry" />
        </mxCell>
        <mxCell id="eqOZPifA_z1N_L8KUlT--35" style="edgeStyle=orthogonalEdgeStyle;rounded=0;orthogonalLoop=1;jettySize=auto;html=1;exitX=0.5;exitY=0;exitDx=0;exitDy=0;entryX=0.5;entryY=1;entryDx=0;entryDy=0;" edge="1" parent="WIyWlLk6GJQsqaUBKTNV-1" source="eqOZPifA_z1N_L8KUlT--5" target="eqOZPifA_z1N_L8KUlT--7">
          <mxGeometry relative="1" as="geometry" />
        </mxCell>
        <mxCell id="eqOZPifA_z1N_L8KUlT--5" value="Intra-modal&lt;div&gt;Multi-Head Attention&lt;/div&gt;" style="rounded=1;whiteSpace=wrap;html=1;" vertex="1" parent="WIyWlLk6GJQsqaUBKTNV-1">
          <mxGeometry x="234" y="443" width="134" height="67" as="geometry" />
        </mxCell>
        <mxCell id="eqOZPifA_z1N_L8KUlT--32" style="edgeStyle=orthogonalEdgeStyle;rounded=0;orthogonalLoop=1;jettySize=auto;html=1;exitX=0.5;exitY=0;exitDx=0;exitDy=0;entryX=0.5;entryY=1;entryDx=0;entryDy=0;" edge="1" parent="WIyWlLk6GJQsqaUBKTNV-1" source="eqOZPifA_z1N_L8KUlT--6" target="eqOZPifA_z1N_L8KUlT--8">
          <mxGeometry relative="1" as="geometry" />
        </mxCell>
        <mxCell id="eqOZPifA_z1N_L8KUlT--36" value="K&lt;sub&gt;time&lt;/sub&gt;" style="edgeLabel;html=1;align=center;verticalAlign=middle;resizable=0;points=[];" vertex="1" connectable="0" parent="eqOZPifA_z1N_L8KUlT--32">
          <mxGeometry x="-0.3241" y="-2" relative="1" as="geometry">
            <mxPoint y="-23" as="offset" />
          </mxGeometry>
        </mxCell>
        <mxCell id="eqOZPifA_z1N_L8KUlT--37" style="edgeStyle=orthogonalEdgeStyle;rounded=0;orthogonalLoop=1;jettySize=auto;html=1;exitX=0.5;exitY=0;exitDx=0;exitDy=0;entryX=0.25;entryY=1;entryDx=0;entryDy=0;" edge="1" parent="WIyWlLk6GJQsqaUBKTNV-1" source="eqOZPifA_z1N_L8KUlT--6" target="eqOZPifA_z1N_L8KUlT--8">
          <mxGeometry relative="1" as="geometry">
            <Array as="points">
              <mxPoint x="157" y="373" />
              <mxPoint x="124" y="373" />
            </Array>
          </mxGeometry>
        </mxCell>
        <mxCell id="eqOZPifA_z1N_L8KUlT--38" value="V&lt;sub&gt;time&lt;/sub&gt;" style="edgeLabel;html=1;align=center;verticalAlign=middle;resizable=0;points=[];" vertex="1" connectable="0" parent="eqOZPifA_z1N_L8KUlT--37">
          <mxGeometry x="0.5981" y="1" relative="1" as="geometry">
            <mxPoint as="offset" />
          </mxGeometry>
        </mxCell>
        <mxCell id="eqOZPifA_z1N_L8KUlT--46" style="edgeStyle=orthogonalEdgeStyle;rounded=0;orthogonalLoop=1;jettySize=auto;html=1;exitX=0.5;exitY=0;exitDx=0;exitDy=0;entryX=0.25;entryY=1;entryDx=0;entryDy=0;" edge="1" parent="WIyWlLk6GJQsqaUBKTNV-1" source="eqOZPifA_z1N_L8KUlT--6" target="eqOZPifA_z1N_L8KUlT--9">
          <mxGeometry relative="1" as="geometry">
            <Array as="points">
              <mxPoint x="157" y="373" />
              <mxPoint x="268" y="373" />
            </Array>
          </mxGeometry>
        </mxCell>
        <mxCell id="eqOZPifA_z1N_L8KUlT--47" value="Q&lt;sub&gt;time&lt;/sub&gt;" style="edgeLabel;html=1;align=center;verticalAlign=middle;resizable=0;points=[];" vertex="1" connectable="0" parent="eqOZPifA_z1N_L8KUlT--46">
          <mxGeometry x="0.7734" relative="1" as="geometry">
            <mxPoint as="offset" />
          </mxGeometry>
        </mxCell>
        <mxCell id="eqOZPifA_z1N_L8KUlT--6" value="Add &amp;amp; Norm" style="rounded=1;whiteSpace=wrap;html=1;" vertex="1" parent="WIyWlLk6GJQsqaUBKTNV-1">
          <mxGeometry x="90" y="392" width="134" height="30" as="geometry" />
        </mxCell>
        <mxCell id="eqOZPifA_z1N_L8KUlT--33" style="edgeStyle=orthogonalEdgeStyle;rounded=0;orthogonalLoop=1;jettySize=auto;html=1;exitX=0.5;exitY=0;exitDx=0;exitDy=0;entryX=0.5;entryY=1;entryDx=0;entryDy=0;" edge="1" parent="WIyWlLk6GJQsqaUBKTNV-1" source="eqOZPifA_z1N_L8KUlT--7" target="eqOZPifA_z1N_L8KUlT--9">
          <mxGeometry relative="1" as="geometry" />
        </mxCell>
        <mxCell id="eqOZPifA_z1N_L8KUlT--39" value="K&lt;sub&gt;fre&lt;/sub&gt;" style="edgeLabel;html=1;align=center;verticalAlign=middle;resizable=0;points=[];" vertex="1" connectable="0" parent="eqOZPifA_z1N_L8KUlT--33">
          <mxGeometry x="0.4148" y="-1" relative="1" as="geometry">
            <mxPoint as="offset" />
          </mxGeometry>
        </mxCell>
        <mxCell id="eqOZPifA_z1N_L8KUlT--40" style="edgeStyle=orthogonalEdgeStyle;rounded=0;orthogonalLoop=1;jettySize=auto;html=1;exitX=0.5;exitY=0;exitDx=0;exitDy=0;entryX=0.75;entryY=1;entryDx=0;entryDy=0;" edge="1" parent="WIyWlLk6GJQsqaUBKTNV-1" source="eqOZPifA_z1N_L8KUlT--7" target="eqOZPifA_z1N_L8KUlT--9">
          <mxGeometry relative="1" as="geometry" />
        </mxCell>
        <mxCell id="eqOZPifA_z1N_L8KUlT--41" value="V&lt;sub&gt;time&lt;/sub&gt;" style="edgeLabel;html=1;align=center;verticalAlign=middle;resizable=0;points=[];" vertex="1" connectable="0" parent="eqOZPifA_z1N_L8KUlT--40">
          <mxGeometry x="0.5562" relative="1" as="geometry">
            <mxPoint y="-4" as="offset" />
          </mxGeometry>
        </mxCell>
        <mxCell id="eqOZPifA_z1N_L8KUlT--42" style="edgeStyle=orthogonalEdgeStyle;rounded=0;orthogonalLoop=1;jettySize=auto;html=1;exitX=0.5;exitY=0;exitDx=0;exitDy=0;entryX=0.75;entryY=1;entryDx=0;entryDy=0;" edge="1" parent="WIyWlLk6GJQsqaUBKTNV-1" source="eqOZPifA_z1N_L8KUlT--7" target="eqOZPifA_z1N_L8KUlT--8">
          <mxGeometry relative="1" as="geometry" />
        </mxCell>
        <mxCell id="eqOZPifA_z1N_L8KUlT--43" value="Q&lt;sub&gt;fre&lt;/sub&gt;" style="edgeLabel;html=1;align=center;verticalAlign=middle;resizable=0;points=[];" vertex="1" connectable="0" parent="eqOZPifA_z1N_L8KUlT--42">
          <mxGeometry x="0.7656" y="1" relative="1" as="geometry">
            <mxPoint as="offset" />
          </mxGeometry>
        </mxCell>
        <mxCell id="eqOZPifA_z1N_L8KUlT--7" value="Add &amp;amp; Norm" style="rounded=1;whiteSpace=wrap;html=1;" vertex="1" parent="WIyWlLk6GJQsqaUBKTNV-1">
          <mxGeometry x="234" y="392" width="134" height="30" as="geometry" />
        </mxCell>
        <mxCell id="eqOZPifA_z1N_L8KUlT--48" style="edgeStyle=orthogonalEdgeStyle;rounded=0;orthogonalLoop=1;jettySize=auto;html=1;exitX=0.5;exitY=0;exitDx=0;exitDy=0;entryX=0.5;entryY=1;entryDx=0;entryDy=0;" edge="1" parent="WIyWlLk6GJQsqaUBKTNV-1" source="eqOZPifA_z1N_L8KUlT--8" target="eqOZPifA_z1N_L8KUlT--10">
          <mxGeometry relative="1" as="geometry" />
        </mxCell>
        <mxCell id="eqOZPifA_z1N_L8KUlT--8" value="Inter-modal&lt;div&gt;Multi-Head Attention&lt;/div&gt;" style="rounded=1;whiteSpace=wrap;html=1;" vertex="1" parent="WIyWlLk6GJQsqaUBKTNV-1">
          <mxGeometry x="90" y="259" width="134" height="67" as="geometry" />
        </mxCell>
        <mxCell id="eqOZPifA_z1N_L8KUlT--49" style="edgeStyle=orthogonalEdgeStyle;rounded=0;orthogonalLoop=1;jettySize=auto;html=1;exitX=0.5;exitY=0;exitDx=0;exitDy=0;entryX=0.5;entryY=1;entryDx=0;entryDy=0;" edge="1" parent="WIyWlLk6GJQsqaUBKTNV-1" source="eqOZPifA_z1N_L8KUlT--9" target="eqOZPifA_z1N_L8KUlT--11">
          <mxGeometry relative="1" as="geometry" />
        </mxCell>
        <mxCell id="eqOZPifA_z1N_L8KUlT--9" value="Inter-modal&lt;div&gt;Multi-Head Attention&lt;/div&gt;" style="rounded=1;whiteSpace=wrap;html=1;" vertex="1" parent="WIyWlLk6GJQsqaUBKTNV-1">
          <mxGeometry x="234" y="259" width="134" height="67" as="geometry" />
        </mxCell>
        <mxCell id="eqOZPifA_z1N_L8KUlT--50" style="edgeStyle=orthogonalEdgeStyle;rounded=0;orthogonalLoop=1;jettySize=auto;html=1;exitX=0.5;exitY=0;exitDx=0;exitDy=0;entryX=0.5;entryY=1;entryDx=0;entryDy=0;" edge="1" parent="WIyWlLk6GJQsqaUBKTNV-1" source="eqOZPifA_z1N_L8KUlT--10" target="eqOZPifA_z1N_L8KUlT--12">
          <mxGeometry relative="1" as="geometry" />
        </mxCell>
        <mxCell id="eqOZPifA_z1N_L8KUlT--56" style="edgeStyle=orthogonalEdgeStyle;rounded=0;orthogonalLoop=1;jettySize=auto;html=1;exitX=0.5;exitY=0;exitDx=0;exitDy=0;entryX=0;entryY=0.5;entryDx=0;entryDy=0;" edge="1" parent="WIyWlLk6GJQsqaUBKTNV-1" source="eqOZPifA_z1N_L8KUlT--10" target="eqOZPifA_z1N_L8KUlT--14">
          <mxGeometry relative="1" as="geometry">
            <Array as="points">
              <mxPoint x="157" y="200" />
              <mxPoint x="70" y="200" />
              <mxPoint x="70" y="117" />
            </Array>
          </mxGeometry>
        </mxCell>
        <mxCell id="eqOZPifA_z1N_L8KUlT--10" value="Add &amp;amp; Norm" style="rounded=1;whiteSpace=wrap;html=1;" vertex="1" parent="WIyWlLk6GJQsqaUBKTNV-1">
          <mxGeometry x="90" y="210" width="134" height="30" as="geometry" />
        </mxCell>
        <mxCell id="eqOZPifA_z1N_L8KUlT--51" style="edgeStyle=orthogonalEdgeStyle;rounded=0;orthogonalLoop=1;jettySize=auto;html=1;exitX=0.5;exitY=0;exitDx=0;exitDy=0;entryX=0.5;entryY=1;entryDx=0;entryDy=0;" edge="1" parent="WIyWlLk6GJQsqaUBKTNV-1" source="eqOZPifA_z1N_L8KUlT--11" target="eqOZPifA_z1N_L8KUlT--13">
          <mxGeometry relative="1" as="geometry" />
        </mxCell>
        <mxCell id="eqOZPifA_z1N_L8KUlT--57" style="edgeStyle=orthogonalEdgeStyle;rounded=0;orthogonalLoop=1;jettySize=auto;html=1;exitX=0.5;exitY=0;exitDx=0;exitDy=0;entryX=1;entryY=0.5;entryDx=0;entryDy=0;" edge="1" parent="WIyWlLk6GJQsqaUBKTNV-1" source="eqOZPifA_z1N_L8KUlT--11" target="eqOZPifA_z1N_L8KUlT--15">
          <mxGeometry relative="1" as="geometry">
            <Array as="points">
              <mxPoint x="300" y="200" />
              <mxPoint x="387" y="200" />
              <mxPoint x="387" y="117" />
            </Array>
          </mxGeometry>
        </mxCell>
        <mxCell id="eqOZPifA_z1N_L8KUlT--11" value="Add &amp;amp; Norm" style="rounded=1;whiteSpace=wrap;html=1;" vertex="1" parent="WIyWlLk6GJQsqaUBKTNV-1">
          <mxGeometry x="233" y="209" width="134" height="30" as="geometry" />
        </mxCell>
        <mxCell id="eqOZPifA_z1N_L8KUlT--53" style="edgeStyle=orthogonalEdgeStyle;rounded=0;orthogonalLoop=1;jettySize=auto;html=1;exitX=0.5;exitY=0;exitDx=0;exitDy=0;entryX=0.5;entryY=1;entryDx=0;entryDy=0;" edge="1" parent="WIyWlLk6GJQsqaUBKTNV-1" source="eqOZPifA_z1N_L8KUlT--12" target="eqOZPifA_z1N_L8KUlT--14">
          <mxGeometry relative="1" as="geometry" />
        </mxCell>
        <mxCell id="eqOZPifA_z1N_L8KUlT--12" value="Convolution" style="rounded=1;whiteSpace=wrap;html=1;" vertex="1" parent="WIyWlLk6GJQsqaUBKTNV-1">
          <mxGeometry x="90" y="155" width="134" height="30" as="geometry" />
        </mxCell>
        <mxCell id="eqOZPifA_z1N_L8KUlT--55" style="edgeStyle=orthogonalEdgeStyle;rounded=0;orthogonalLoop=1;jettySize=auto;html=1;exitX=0.5;exitY=0;exitDx=0;exitDy=0;entryX=0.5;entryY=1;entryDx=0;entryDy=0;" edge="1" parent="WIyWlLk6GJQsqaUBKTNV-1" source="eqOZPifA_z1N_L8KUlT--13" target="eqOZPifA_z1N_L8KUlT--15">
          <mxGeometry relative="1" as="geometry" />
        </mxCell>
        <mxCell id="eqOZPifA_z1N_L8KUlT--13" value="Convolution" style="rounded=1;whiteSpace=wrap;html=1;" vertex="1" parent="WIyWlLk6GJQsqaUBKTNV-1">
          <mxGeometry x="233" y="155" width="134" height="30" as="geometry" />
        </mxCell>
        <mxCell id="eqOZPifA_z1N_L8KUlT--14" value="Add &amp;amp; Norm" style="rounded=1;whiteSpace=wrap;html=1;" vertex="1" parent="WIyWlLk6GJQsqaUBKTNV-1">
          <mxGeometry x="90" y="102" width="134" height="30" as="geometry" />
        </mxCell>
        <mxCell id="eqOZPifA_z1N_L8KUlT--15" value="Add &amp;amp; Norm" style="rounded=1;whiteSpace=wrap;html=1;" vertex="1" parent="WIyWlLk6GJQsqaUBKTNV-1">
          <mxGeometry x="233" y="102" width="134" height="30" as="geometry" />
        </mxCell>
        <mxCell id="eqOZPifA_z1N_L8KUlT--21" value="" style="edgeStyle=orthogonalEdgeStyle;rounded=0;orthogonalLoop=1;jettySize=auto;html=1;" edge="1" parent="WIyWlLk6GJQsqaUBKTNV-1" source="eqOZPifA_z1N_L8KUlT--19" target="eqOZPifA_z1N_L8KUlT--20">
          <mxGeometry relative="1" as="geometry" />
        </mxCell>
        <mxCell id="eqOZPifA_z1N_L8KUlT--34" value="fft" style="edgeLabel;html=1;align=center;verticalAlign=middle;resizable=0;points=[];" vertex="1" connectable="0" parent="eqOZPifA_z1N_L8KUlT--21">
          <mxGeometry x="-0.0895" y="1" relative="1" as="geometry">
            <mxPoint as="offset" />
          </mxGeometry>
        </mxCell>
        <mxCell id="eqOZPifA_z1N_L8KUlT--22" style="edgeStyle=orthogonalEdgeStyle;rounded=0;orthogonalLoop=1;jettySize=auto;html=1;entryX=0.5;entryY=1;entryDx=0;entryDy=0;" edge="1" parent="WIyWlLk6GJQsqaUBKTNV-1" source="eqOZPifA_z1N_L8KUlT--19" target="eqOZPifA_z1N_L8KUlT--2">
          <mxGeometry relative="1" as="geometry" />
        </mxCell>
        <mxCell id="eqOZPifA_z1N_L8KUlT--30" style="edgeStyle=orthogonalEdgeStyle;rounded=0;orthogonalLoop=1;jettySize=auto;html=1;entryX=0;entryY=0.5;entryDx=0;entryDy=0;" edge="1" parent="WIyWlLk6GJQsqaUBKTNV-1" source="eqOZPifA_z1N_L8KUlT--19" target="eqOZPifA_z1N_L8KUlT--6">
          <mxGeometry relative="1" as="geometry">
            <Array as="points">
              <mxPoint x="157" y="520" />
              <mxPoint x="74" y="520" />
              <mxPoint x="74" y="407" />
            </Array>
          </mxGeometry>
        </mxCell>
        <mxCell id="eqOZPifA_z1N_L8KUlT--19" value="&lt;font style=&quot;font-size: 19px;&quot;&gt;X&lt;sub&gt;time&lt;/sub&gt;&lt;/font&gt;" style="text;html=1;align=center;verticalAlign=middle;resizable=0;points=[];autosize=1;strokeColor=none;fillColor=none;" vertex="1" parent="WIyWlLk6GJQsqaUBKTNV-1">
          <mxGeometry x="122" y="567" width="70" height="40" as="geometry" />
        </mxCell>
        <mxCell id="eqOZPifA_z1N_L8KUlT--23" style="edgeStyle=orthogonalEdgeStyle;rounded=0;orthogonalLoop=1;jettySize=auto;html=1;entryX=0.5;entryY=1;entryDx=0;entryDy=0;" edge="1" parent="WIyWlLk6GJQsqaUBKTNV-1" source="eqOZPifA_z1N_L8KUlT--20" target="eqOZPifA_z1N_L8KUlT--5">
          <mxGeometry relative="1" as="geometry" />
        </mxCell>
        <mxCell id="eqOZPifA_z1N_L8KUlT--31" style="edgeStyle=orthogonalEdgeStyle;rounded=0;orthogonalLoop=1;jettySize=auto;html=1;entryX=1;entryY=0.5;entryDx=0;entryDy=0;" edge="1" parent="WIyWlLk6GJQsqaUBKTNV-1" source="eqOZPifA_z1N_L8KUlT--20" target="eqOZPifA_z1N_L8KUlT--7">
          <mxGeometry relative="1" as="geometry">
            <Array as="points">
              <mxPoint x="301" y="520" />
              <mxPoint x="384" y="520" />
              <mxPoint x="384" y="407" />
            </Array>
          </mxGeometry>
        </mxCell>
        <mxCell id="eqOZPifA_z1N_L8KUlT--20" value="&lt;font style=&quot;font-size: 19px;&quot;&gt;X&lt;/font&gt;&lt;font style=&quot;font-size: 15.8333px;&quot;&gt;&lt;sub&gt;fre&lt;/sub&gt;&lt;/font&gt;" style="text;html=1;align=center;verticalAlign=middle;resizable=0;points=[];autosize=1;strokeColor=none;fillColor=none;" vertex="1" parent="WIyWlLk6GJQsqaUBKTNV-1">
          <mxGeometry x="276" y="567" width="50" height="40" as="geometry" />
        </mxCell>
        <mxCell id="eqOZPifA_z1N_L8KUlT--64" value="" style="rounded=1;whiteSpace=wrap;html=1;" vertex="1" parent="WIyWlLk6GJQsqaUBKTNV-1">
          <mxGeometry x="449" y="70" width="350" height="471" as="geometry" />
        </mxCell>
        <mxCell id="eqOZPifA_z1N_L8KUlT--83" style="edgeStyle=orthogonalEdgeStyle;rounded=0;orthogonalLoop=1;jettySize=auto;html=1;exitX=0.5;exitY=0;exitDx=0;exitDy=0;entryX=0.5;entryY=1;entryDx=0;entryDy=0;" edge="1" parent="WIyWlLk6GJQsqaUBKTNV-1" source="eqOZPifA_z1N_L8KUlT--84" target="eqOZPifA_z1N_L8KUlT--89">
          <mxGeometry relative="1" as="geometry" />
        </mxCell>
        <mxCell id="eqOZPifA_z1N_L8KUlT--84" value="time-target&lt;div&gt;Multi-Head Attention&lt;/div&gt;" style="rounded=1;whiteSpace=wrap;html=1;" vertex="1" parent="WIyWlLk6GJQsqaUBKTNV-1">
          <mxGeometry x="484" y="336" width="134" height="67" as="geometry" />
        </mxCell>
        <mxCell id="eqOZPifA_z1N_L8KUlT--85" style="edgeStyle=orthogonalEdgeStyle;rounded=0;orthogonalLoop=1;jettySize=auto;html=1;exitX=0.5;exitY=0;exitDx=0;exitDy=0;entryX=0.5;entryY=1;entryDx=0;entryDy=0;" edge="1" parent="WIyWlLk6GJQsqaUBKTNV-1" source="eqOZPifA_z1N_L8KUlT--86" target="eqOZPifA_z1N_L8KUlT--92">
          <mxGeometry relative="1" as="geometry" />
        </mxCell>
        <mxCell id="eqOZPifA_z1N_L8KUlT--86" value="frequency-target&lt;div&gt;Multi-Head Attention&lt;/div&gt;" style="rounded=1;whiteSpace=wrap;html=1;" vertex="1" parent="WIyWlLk6GJQsqaUBKTNV-1">
          <mxGeometry x="638" y="335" width="134" height="67" as="geometry" />
        </mxCell>
        <mxCell id="eqOZPifA_z1N_L8KUlT--87" style="edgeStyle=orthogonalEdgeStyle;rounded=0;orthogonalLoop=1;jettySize=auto;html=1;exitX=0.5;exitY=0;exitDx=0;exitDy=0;entryX=0.5;entryY=1;entryDx=0;entryDy=0;" edge="1" parent="WIyWlLk6GJQsqaUBKTNV-1" source="eqOZPifA_z1N_L8KUlT--89" target="eqOZPifA_z1N_L8KUlT--94">
          <mxGeometry relative="1" as="geometry" />
        </mxCell>
        <mxCell id="eqOZPifA_z1N_L8KUlT--89" value="Add &amp;amp; Norm" style="rounded=1;whiteSpace=wrap;html=1;" vertex="1" parent="WIyWlLk6GJQsqaUBKTNV-1">
          <mxGeometry x="484" y="271" width="134" height="30" as="geometry" />
        </mxCell>
        <mxCell id="eqOZPifA_z1N_L8KUlT--90" style="edgeStyle=orthogonalEdgeStyle;rounded=0;orthogonalLoop=1;jettySize=auto;html=1;exitX=0.5;exitY=0;exitDx=0;exitDy=0;entryX=0.5;entryY=1;entryDx=0;entryDy=0;" edge="1" parent="WIyWlLk6GJQsqaUBKTNV-1" source="eqOZPifA_z1N_L8KUlT--92" target="eqOZPifA_z1N_L8KUlT--96">
          <mxGeometry relative="1" as="geometry" />
        </mxCell>
        <mxCell id="eqOZPifA_z1N_L8KUlT--92" value="Add &amp;amp; Norm" style="rounded=1;whiteSpace=wrap;html=1;" vertex="1" parent="WIyWlLk6GJQsqaUBKTNV-1">
          <mxGeometry x="638" y="271" width="134" height="30" as="geometry" />
        </mxCell>
        <mxCell id="eqOZPifA_z1N_L8KUlT--93" style="edgeStyle=orthogonalEdgeStyle;rounded=0;orthogonalLoop=1;jettySize=auto;html=1;exitX=0.5;exitY=0;exitDx=0;exitDy=0;entryX=0.5;entryY=1;entryDx=0;entryDy=0;" edge="1" parent="WIyWlLk6GJQsqaUBKTNV-1" source="eqOZPifA_z1N_L8KUlT--94" target="eqOZPifA_z1N_L8KUlT--97">
          <mxGeometry relative="1" as="geometry" />
        </mxCell>
        <mxCell id="eqOZPifA_z1N_L8KUlT--94" value="Feed Forward" style="rounded=1;whiteSpace=wrap;html=1;" vertex="1" parent="WIyWlLk6GJQsqaUBKTNV-1">
          <mxGeometry x="484" y="194" width="134" height="30" as="geometry" />
        </mxCell>
        <mxCell id="eqOZPifA_z1N_L8KUlT--95" style="edgeStyle=orthogonalEdgeStyle;rounded=0;orthogonalLoop=1;jettySize=auto;html=1;exitX=0.5;exitY=0;exitDx=0;exitDy=0;entryX=0.5;entryY=1;entryDx=0;entryDy=0;" edge="1" parent="WIyWlLk6GJQsqaUBKTNV-1" source="eqOZPifA_z1N_L8KUlT--96" target="eqOZPifA_z1N_L8KUlT--98">
          <mxGeometry relative="1" as="geometry" />
        </mxCell>
        <mxCell id="eqOZPifA_z1N_L8KUlT--96" value="Feed Forward" style="rounded=1;whiteSpace=wrap;html=1;" vertex="1" parent="WIyWlLk6GJQsqaUBKTNV-1">
          <mxGeometry x="638" y="194" width="134" height="30" as="geometry" />
        </mxCell>
        <mxCell id="eqOZPifA_z1N_L8KUlT--151" style="edgeStyle=orthogonalEdgeStyle;rounded=0;orthogonalLoop=1;jettySize=auto;html=1;exitX=0.5;exitY=0;exitDx=0;exitDy=0;entryX=0;entryY=0.5;entryDx=0;entryDy=0;" edge="1" parent="WIyWlLk6GJQsqaUBKTNV-1" source="eqOZPifA_z1N_L8KUlT--97" target="eqOZPifA_z1N_L8KUlT--149">
          <mxGeometry relative="1" as="geometry" />
        </mxCell>
        <mxCell id="eqOZPifA_z1N_L8KUlT--97" value="Add &amp;amp; Norm" style="rounded=1;whiteSpace=wrap;html=1;" vertex="1" parent="WIyWlLk6GJQsqaUBKTNV-1">
          <mxGeometry x="484" y="123" width="134" height="30" as="geometry" />
        </mxCell>
        <mxCell id="eqOZPifA_z1N_L8KUlT--152" style="edgeStyle=orthogonalEdgeStyle;rounded=0;orthogonalLoop=1;jettySize=auto;html=1;exitX=0.5;exitY=0;exitDx=0;exitDy=0;entryX=1;entryY=0.5;entryDx=0;entryDy=0;" edge="1" parent="WIyWlLk6GJQsqaUBKTNV-1" source="eqOZPifA_z1N_L8KUlT--98" target="eqOZPifA_z1N_L8KUlT--149">
          <mxGeometry relative="1" as="geometry" />
        </mxCell>
        <mxCell id="eqOZPifA_z1N_L8KUlT--98" value="Add &amp;amp; Norm" style="rounded=1;whiteSpace=wrap;html=1;" vertex="1" parent="WIyWlLk6GJQsqaUBKTNV-1">
          <mxGeometry x="638" y="123" width="134" height="30" as="geometry" />
        </mxCell>
        <mxCell id="eqOZPifA_z1N_L8KUlT--112" style="edgeStyle=orthogonalEdgeStyle;rounded=0;orthogonalLoop=1;jettySize=auto;html=1;entryX=0.75;entryY=1;entryDx=0;entryDy=0;" edge="1" parent="WIyWlLk6GJQsqaUBKTNV-1" source="eqOZPifA_z1N_L8KUlT--103" target="eqOZPifA_z1N_L8KUlT--84">
          <mxGeometry relative="1" as="geometry" />
        </mxCell>
        <mxCell id="eqOZPifA_z1N_L8KUlT--114" value="Q&lt;sub&gt;time&lt;/sub&gt;" style="edgeLabel;html=1;align=center;verticalAlign=middle;resizable=0;points=[];" vertex="1" connectable="0" parent="eqOZPifA_z1N_L8KUlT--112">
          <mxGeometry x="0.7672" y="-1" relative="1" as="geometry">
            <mxPoint as="offset" />
          </mxGeometry>
        </mxCell>
        <mxCell id="eqOZPifA_z1N_L8KUlT--103" value="&lt;font style=&quot;font-size: 19px;&quot;&gt;X&lt;sub&gt;time&lt;/sub&gt;&lt;/font&gt;" style="text;html=1;align=center;verticalAlign=middle;resizable=0;points=[];autosize=1;strokeColor=none;fillColor=none;" vertex="1" parent="WIyWlLk6GJQsqaUBKTNV-1">
          <mxGeometry x="516" y="568" width="70" height="40" as="geometry" />
        </mxCell>
        <mxCell id="eqOZPifA_z1N_L8KUlT--138" style="edgeStyle=orthogonalEdgeStyle;rounded=0;orthogonalLoop=1;jettySize=auto;html=1;entryX=0.25;entryY=1;entryDx=0;entryDy=0;" edge="1" parent="WIyWlLk6GJQsqaUBKTNV-1" source="eqOZPifA_z1N_L8KUlT--106" target="eqOZPifA_z1N_L8KUlT--86">
          <mxGeometry relative="1" as="geometry" />
        </mxCell>
        <mxCell id="eqOZPifA_z1N_L8KUlT--139" value="Q&lt;sub&gt;fre&lt;/sub&gt;" style="edgeLabel;html=1;align=center;verticalAlign=middle;resizable=0;points=[];" vertex="1" connectable="0" parent="eqOZPifA_z1N_L8KUlT--138">
          <mxGeometry x="0.7809" y="3" relative="1" as="geometry">
            <mxPoint x="2" y="4" as="offset" />
          </mxGeometry>
        </mxCell>
        <mxCell id="eqOZPifA_z1N_L8KUlT--106" value="&lt;font style=&quot;font-size: 19px;&quot;&gt;X&lt;/font&gt;&lt;font style=&quot;font-size: 15.8333px;&quot;&gt;&lt;sub&gt;fre&lt;/sub&gt;&lt;/font&gt;" style="text;html=1;align=center;verticalAlign=middle;resizable=0;points=[];autosize=1;strokeColor=none;fillColor=none;" vertex="1" parent="WIyWlLk6GJQsqaUBKTNV-1">
          <mxGeometry x="681" y="568" width="50" height="40" as="geometry" />
        </mxCell>
        <mxCell id="eqOZPifA_z1N_L8KUlT--118" style="edgeStyle=orthogonalEdgeStyle;rounded=0;orthogonalLoop=1;jettySize=auto;html=1;exitX=0.5;exitY=0;exitDx=0;exitDy=0;entryX=0.5;entryY=1;entryDx=0;entryDy=0;" edge="1" parent="WIyWlLk6GJQsqaUBKTNV-1" source="eqOZPifA_z1N_L8KUlT--14" target="eqOZPifA_z1N_L8KUlT--84">
          <mxGeometry relative="1" as="geometry">
            <Array as="points">
              <mxPoint x="157" y="60" />
              <mxPoint x="420" y="60" />
              <mxPoint x="420" y="460" />
              <mxPoint x="551" y="460" />
            </Array>
          </mxGeometry>
        </mxCell>
        <mxCell id="eqOZPifA_z1N_L8KUlT--119" value="K&lt;sub&gt;time&lt;/sub&gt;" style="edgeLabel;html=1;align=center;verticalAlign=middle;resizable=0;points=[];" vertex="1" connectable="0" parent="eqOZPifA_z1N_L8KUlT--118">
          <mxGeometry x="0.9421" y="2" relative="1" as="geometry">
            <mxPoint x="3" y="-2" as="offset" />
          </mxGeometry>
        </mxCell>
        <mxCell id="eqOZPifA_z1N_L8KUlT--120" style="edgeStyle=orthogonalEdgeStyle;rounded=0;orthogonalLoop=1;jettySize=auto;html=1;exitX=0.5;exitY=0;exitDx=0;exitDy=0;entryX=0.25;entryY=1;entryDx=0;entryDy=0;" edge="1" parent="WIyWlLk6GJQsqaUBKTNV-1" source="eqOZPifA_z1N_L8KUlT--14" target="eqOZPifA_z1N_L8KUlT--84">
          <mxGeometry relative="1" as="geometry">
            <Array as="points">
              <mxPoint x="157" y="60" />
              <mxPoint x="420" y="60" />
              <mxPoint x="420" y="460" />
              <mxPoint x="517" y="460" />
            </Array>
          </mxGeometry>
        </mxCell>
        <mxCell id="eqOZPifA_z1N_L8KUlT--121" value="V&lt;sub&gt;time&lt;/sub&gt;" style="edgeLabel;html=1;align=center;verticalAlign=middle;resizable=0;points=[];" vertex="1" connectable="0" parent="eqOZPifA_z1N_L8KUlT--120">
          <mxGeometry x="0.9494" y="-1" relative="1" as="geometry">
            <mxPoint x="-1" y="2" as="offset" />
          </mxGeometry>
        </mxCell>
        <mxCell id="eqOZPifA_z1N_L8KUlT--133" value="Encoder" style="text;html=1;align=center;verticalAlign=middle;resizable=0;points=[];autosize=1;strokeColor=none;fillColor=none;" vertex="1" parent="WIyWlLk6GJQsqaUBKTNV-1">
          <mxGeometry x="195" y="70" width="70" height="30" as="geometry" />
        </mxCell>
        <mxCell id="eqOZPifA_z1N_L8KUlT--134" value="Decoder" style="text;html=1;align=center;verticalAlign=middle;resizable=0;points=[];autosize=1;strokeColor=none;fillColor=none;" vertex="1" parent="WIyWlLk6GJQsqaUBKTNV-1">
          <mxGeometry x="592" y="70" width="70" height="30" as="geometry" />
        </mxCell>
        <mxCell id="eqOZPifA_z1N_L8KUlT--140" style="edgeStyle=orthogonalEdgeStyle;rounded=0;orthogonalLoop=1;jettySize=auto;html=1;exitX=0.5;exitY=0;exitDx=0;exitDy=0;entryX=0.5;entryY=1;entryDx=0;entryDy=0;" edge="1" parent="WIyWlLk6GJQsqaUBKTNV-1" source="eqOZPifA_z1N_L8KUlT--15" target="eqOZPifA_z1N_L8KUlT--86">
          <mxGeometry relative="1" as="geometry">
            <Array as="points">
              <mxPoint x="300" y="40" />
              <mxPoint x="440" y="40" />
              <mxPoint x="440" y="450" />
              <mxPoint x="705" y="450" />
            </Array>
          </mxGeometry>
        </mxCell>
        <mxCell id="eqOZPifA_z1N_L8KUlT--144" value="K&lt;sub&gt;fre&lt;/sub&gt;" style="edgeLabel;html=1;align=center;verticalAlign=middle;resizable=0;points=[];" vertex="1" connectable="0" parent="eqOZPifA_z1N_L8KUlT--140">
          <mxGeometry x="0.9479" relative="1" as="geometry">
            <mxPoint y="1" as="offset" />
          </mxGeometry>
        </mxCell>
        <mxCell id="eqOZPifA_z1N_L8KUlT--145" style="edgeStyle=orthogonalEdgeStyle;rounded=0;orthogonalLoop=1;jettySize=auto;html=1;exitX=0.5;exitY=0;exitDx=0;exitDy=0;entryX=0.75;entryY=1;entryDx=0;entryDy=0;" edge="1" parent="WIyWlLk6GJQsqaUBKTNV-1" source="eqOZPifA_z1N_L8KUlT--15" target="eqOZPifA_z1N_L8KUlT--86">
          <mxGeometry relative="1" as="geometry">
            <Array as="points">
              <mxPoint x="300" y="40" />
              <mxPoint x="440" y="40" />
              <mxPoint x="440" y="450" />
              <mxPoint x="739" y="450" />
            </Array>
          </mxGeometry>
        </mxCell>
        <mxCell id="eqOZPifA_z1N_L8KUlT--146" value="V&lt;sub&gt;fre&lt;/sub&gt;" style="edgeLabel;html=1;align=center;verticalAlign=middle;resizable=0;points=[];" vertex="1" connectable="0" parent="eqOZPifA_z1N_L8KUlT--145">
          <mxGeometry x="0.9526" y="2" relative="1" as="geometry">
            <mxPoint x="3" y="2" as="offset" />
          </mxGeometry>
        </mxCell>
        <mxCell id="eqOZPifA_z1N_L8KUlT--153" style="edgeStyle=orthogonalEdgeStyle;rounded=0;orthogonalLoop=1;jettySize=auto;html=1;exitX=0.5;exitY=0;exitDx=0;exitDy=0;" edge="1" parent="WIyWlLk6GJQsqaUBKTNV-1" source="eqOZPifA_z1N_L8KUlT--149">
          <mxGeometry relative="1" as="geometry">
            <mxPoint x="623.8275862068965" y="10" as="targetPoint" />
          </mxGeometry>
        </mxCell>
        <mxCell id="eqOZPifA_z1N_L8KUlT--149" value="" style="shape=orEllipse;perimeter=ellipsePerimeter;whiteSpace=wrap;html=1;backgroundOutline=1;" vertex="1" parent="WIyWlLk6GJQsqaUBKTNV-1">
          <mxGeometry x="609" y="30" width="30" height="30" as="geometry" />
        </mxCell>
      </root>
    </mxGraphModel>
  </diagram>
</mxfile>
